<svg width="31" height="39" viewBox="0 0 31 39" fill="none" xmlns="http://www.w3.org/2000/svg">
<path d="M14.0858 38.4142C14.8668 39.1953 16.1332 39.1953 16.9142 38.4142L29.6421 25.6863C30.4232 24.9052 30.4232 23.6389 29.6421 22.8579C28.8611 22.0768 27.5948 22.0768 26.8137 22.8579L15.5 34.1716L4.18629 22.8579C3.40524 22.0768 2.13891 22.0768 1.35787 22.8579C0.576817 23.6389 0.576817 24.9052 1.35787 25.6863L14.0858 38.4142ZM13.5 8.74228e-08L13.5 37L17.5 37L17.5 -8.74228e-08L13.5 8.74228e-08Z" fill="url(#paint0_linear_86_1057)"/>
<defs>
<linearGradient id="paint0_linear_86_1057" x1="17.5" y1="-5.80227e-06" x2="5.93326" y2="3.68403" gradientUnits="userSpaceOnUse">
<stop stop-color="#1C84FE"/>
<stop offset="1" stop-color="#BD4BC8"/>
</linearGradient>
</defs>
</svg>
