<svg width="34" height="36" viewBox="0 0 34 36" fill="none" xmlns="http://www.w3.org/2000/svg">
<path d="M27.3084 22.6431C25.1103 22.6431 23.0504 23.7264 21.8072 25.536L12.9013 20.5048C13.5595 18.9062 13.5595 17.1129 12.9013 15.5142L21.7991 10.4587C23.8955 13.4855 28.0519 14.2402 31.0828 12.1425C34.1138 10.0489 34.8695 5.89823 32.7689 2.87142C30.6725 -0.155397 26.5161 -0.910072 23.4852 1.1876C21.6812 2.43322 20.6086 4.48626 20.6127 6.67725C20.6208 7.05458 20.6614 7.43192 20.7346 7.80114L11.2477 13.1285C8.54583 10.6129 4.31633 10.759 1.79733 13.4571C-0.721682 16.1553 -0.575417 20.379 2.12642 22.8946C4.69419 25.2885 8.67991 25.2885 11.2517 22.8946L20.7386 28.1936C20.6696 28.5628 20.6289 28.9401 20.6249 29.3175C20.6249 33.0056 23.6152 35.9959 27.3084 36C31.0016 36 33.9959 33.0138 34 29.3256C34 25.6374 31.0097 22.6471 27.3165 22.6431H27.3124H27.3084ZM27.3084 2.8633C29.4211 2.8633 31.1316 4.5674 31.1356 6.67725C31.1356 8.78709 29.4292 10.4952 27.3165 10.4993C25.2038 10.5034 23.4933 8.7952 23.4892 6.68536C23.4892 4.57958 25.1957 2.87142 27.3043 2.86736C27.3043 2.86736 27.3043 2.86736 27.3084 2.86736V2.8633ZM6.71345 21.8113C4.6048 21.8113 2.89431 20.1031 2.89431 17.9974C2.89431 15.8916 4.6048 14.1834 6.71345 14.1834C8.82211 14.1834 10.5326 15.8916 10.5326 17.9974C10.5326 20.1031 8.82211 21.8073 6.71345 21.8113ZM27.3084 33.1314C25.1957 33.1314 23.4852 31.4273 23.4811 29.3175C23.4811 27.2076 25.1875 25.4995 27.3002 25.4954C29.413 25.4954 31.1235 27.1995 31.1275 29.3094C31.1275 29.3094 31.1275 29.3134 31.1275 29.3175C31.1275 31.4233 29.417 33.1314 27.3084 33.1314Z" fill="#1C84FE"/>
</svg>
