<svg width="20" height="17" viewBox="0 0 20 17" fill="none" xmlns="http://www.w3.org/2000/svg">
<path d="M17.0959 16.3735C18.3905 16.3735 19.4358 15.3281 19.4358 14.0336V7.34802C19.4358 5.79819 18.1777 4.54009 16.6279 4.54009H3.91929C3.20212 4.54009 2.61257 3.97486 2.58826 3.25768C2.61257 2.49188 3.2325 1.88411 3.9983 1.87195H16.6279C17.1445 1.87195 17.5639 2.29132 17.5639 2.80793V3.12397C17.5639 3.64058 17.9832 4.05995 18.4999 4.05995C19.0165 4.05995 19.4358 3.64058 19.4358 3.12397V2.80793C19.4358 1.2581 18.1777 0 16.6279 0H3.91929C2.15066 0 0.716309 1.43435 0.716309 3.20298V12.6296C0.716309 14.696 2.39377 16.3735 4.46021 16.3735H17.0959ZM17.5639 11.0676H14.3305C14.0752 11.0676 13.8686 10.8549 13.8625 10.5996V10.0526C13.8625 9.79128 14.0692 9.58464 14.3305 9.58464H17.57V11.0676H17.5639ZM2.58826 12.6296V6.12031C3.00763 6.3148 3.45738 6.41205 3.91929 6.41205H16.6279C17.1445 6.41205 17.5639 6.83141 17.5639 7.34802V7.70661H14.3305C13.0359 7.70661 11.9906 8.75806 11.9906 10.0526V10.6179C12.0027 11.9003 13.0481 12.9335 14.3305 12.9396H17.57V14.0336C17.57 14.2949 17.3633 14.5016 17.102 14.5016H4.46021C3.42699 14.5016 2.58826 13.6628 2.58826 12.6296Z" fill="#1C84FE"/>
</svg>
